<svg width="186" height="32" viewBox="0 0 186 32" fill="none" xmlns="http://www.w3.org/2000/svg">
<path d="M172.198 24.6439C172.198 24.8364 172.122 25.0211 171.986 25.1572C171.85 25.2934 171.665 25.3699 171.472 25.3699H167.114C166.921 25.3699 166.736 25.2934 166.6 25.1572C166.464 25.0211 166.387 24.8364 166.387 24.6439C166.387 24.4514 166.464 24.2667 166.6 24.1306C166.736 23.9945 166.921 23.918 167.114 23.918H171.472C171.665 23.918 171.85 23.9945 171.986 24.1306C172.122 24.2667 172.198 24.4514 172.198 24.6439ZM169.293 21.7402C169.293 21.5476 169.216 21.363 169.08 21.2268C168.944 21.0907 168.759 21.0142 168.567 21.0142H165.661C165.468 21.0142 165.284 21.0907 165.147 21.2268C165.011 21.363 164.935 21.5476 164.935 21.7402C164.935 21.9327 165.011 22.1173 165.147 22.2535C165.284 22.3896 165.468 22.4661 165.661 22.4661H168.567C168.759 22.4661 168.944 22.3896 169.08 22.2535C169.216 22.1173 169.293 21.9327 169.293 21.7402ZM186 23.192V23.918C186 24.303 185.847 24.6723 185.574 24.9446C185.302 25.2169 184.932 25.3699 184.547 25.3699H176.131C175.748 25.3706 175.38 25.2195 175.109 24.9497L165.369 15.517L165.36 15.5089C165.088 15.2366 164.935 14.8675 164.935 14.4826C164.935 14.0977 165.088 13.7285 165.36 13.4563L171.172 7.63788L171.185 7.62518C171.459 7.36181 171.825 7.21671 172.205 7.2213C172.585 7.22588 172.947 7.37978 173.215 7.64968L173.96 8.40102C174.215 8.65624 174.366 8.99718 174.383 9.35745C174.486 11.4336 175.927 12.8338 178.134 13.0116C178.496 13.0427 178.833 13.2079 179.078 13.4748C179.324 13.7416 179.461 14.0908 179.462 14.4535V16.6586C179.462 17.4287 179.769 18.1673 180.313 18.7119C180.858 19.2564 181.597 19.5623 182.368 19.5623C183.331 19.5623 184.255 19.9448 184.936 20.6255C185.617 21.3062 186 22.2294 186 23.192ZM184.547 23.192C184.547 22.6144 184.318 22.0605 183.909 21.6521C183.5 21.2437 182.946 21.0142 182.368 21.0142C181.512 21.0152 180.675 20.7626 179.963 20.2883H177.283C177.091 20.2883 176.906 20.2118 176.77 20.0757C176.633 19.9395 176.557 19.7549 176.557 19.5623C176.557 19.3698 176.633 19.1852 176.77 19.049C176.906 18.9129 177.091 18.8364 177.283 18.8364H178.596C178.336 18.3878 178.158 17.896 178.071 17.3845H176.557C176.364 17.3845 176.179 17.308 176.043 17.1719C175.907 17.0358 175.83 16.8511 175.83 16.6586C175.83 16.4661 175.907 16.2814 176.043 16.1453C176.179 16.0091 176.364 15.9326 176.557 15.9326H178.01V14.4535C176.609 14.3392 175.387 13.8183 174.479 12.9472C173.536 12.0398 173.001 10.8229 172.936 9.42369L172.187 8.67325L166.387 14.4808L176.123 23.9089L176.131 23.9162H184.547V23.192Z" fill="#F3F3F3"/>
<path d="M146.688 24.9203C145.697 24.9203 145.201 24.4247 145.201 23.4336V1.48672C145.201 0.495575 145.697 0 146.688 0C147.68 0 148.176 0.495575 148.176 1.48672V14.7787L156.606 7.53981C157.362 6.89085 158.058 6.93804 158.696 7.68141C159.345 8.43657 159.298 9.13273 158.554 9.7699L152.09 15.3451L158.271 22.3717C158.932 23.1386 158.897 23.8348 158.165 24.4601C157.409 25.1091 156.701 25.0619 156.039 24.3186L149.823 17.3097L148.176 18.7256V23.4336C148.176 24.4247 147.68 24.9203 146.688 24.9203Z" fill="#F3F3F3"/>
<path d="M127.689 24.9203C125.706 24.9203 124.23 24.4365 123.262 23.4689C122.294 22.5014 121.81 21.0265 121.81 19.0442C121.81 17.0619 122.288 15.5869 123.244 14.6194C124.212 13.6518 125.694 13.1681 127.689 13.1681H135.181C135.11 11.9291 134.785 11.0855 134.207 10.6371C133.628 10.1769 132.636 9.94684 131.231 9.94684H129.177C127.996 9.94684 127.117 10.0294 126.538 10.1946C125.96 10.348 125.552 10.6312 125.316 11.0442C125.104 11.5398 124.885 11.8819 124.661 12.0707C124.437 12.2595 124.1 12.3539 123.651 12.3539C123.156 12.3539 122.766 12.2182 122.483 11.9468C122.199 11.6636 122.117 11.292 122.235 10.8318C122.589 9.49846 123.327 8.52501 124.448 7.91144C125.582 7.28607 127.158 6.97339 129.177 6.97339H131.231C133.593 6.97339 135.34 7.53976 136.474 8.6725C137.607 9.80524 138.174 11.5516 138.174 13.9114V23.4335C138.174 24.4247 137.678 24.9203 136.686 24.9203C135.694 24.9203 135.198 24.4247 135.198 23.4335V22.6371C133.935 24.1592 132.093 24.9203 129.673 24.9203H127.689ZM127.689 21.9468H129.673C130.547 21.9468 131.367 21.8701 132.135 21.7167C132.902 21.5515 133.557 21.2566 134.1 20.8318C134.655 20.407 135.021 19.7993 135.198 19.0088V16.1415H127.689C126.52 16.1415 125.741 16.3362 125.352 16.7256C124.974 17.115 124.785 17.8878 124.785 19.0442C124.785 20.2123 124.974 20.9911 125.352 21.3804C125.741 21.758 126.52 21.9468 127.689 21.9468Z" fill="#F3F3F3"/>
<path d="M101.84 17.1681V18.0176C101.84 19.5397 102.117 20.5781 102.672 21.1327C103.227 21.6754 104.272 21.9468 105.807 21.9468H108.712C109.916 21.9468 110.807 21.8347 111.386 21.6105C111.964 21.3863 112.348 20.9911 112.537 20.4247C112.667 19.9763 112.844 19.6341 113.068 19.3981C113.304 19.1622 113.659 19.0442 114.131 19.0442C114.627 19.0442 115.005 19.174 115.264 19.4335C115.524 19.6931 115.607 20.0707 115.512 20.5663C115.252 22.0294 114.556 23.1209 113.422 23.8406C112.289 24.5604 110.719 24.9203 108.712 24.9203H105.807C103.458 24.9203 101.71 24.3539 100.565 23.2211C99.4314 22.0884 98.8647 20.3539 98.8647 18.0176V13.9114C98.8647 11.5161 99.4314 9.75803 100.565 8.63709C101.71 7.50435 103.458 6.94978 105.807 6.97338H108.712C111.073 6.97338 112.82 7.53975 113.954 8.67249C115.087 9.79344 115.654 11.5397 115.654 13.9114V15.6813C115.654 16.6725 115.158 17.1681 114.166 17.1681H101.84ZM105.807 9.94683C104.272 9.92323 103.227 10.1887 102.672 10.7433C102.117 11.2979 101.84 12.3539 101.84 13.9114V14.1946H112.679V13.9114C112.679 12.3657 112.401 11.3215 111.846 10.7787C111.303 10.2241 110.258 9.94683 108.712 9.94683H105.807Z" fill="#F3F3F3"/>
<path d="M77.7503 24.9203C76.7585 24.9203 76.2626 24.4247 76.2626 23.4335V8.46011C76.2626 7.46896 76.7585 6.97339 77.7503 6.97339C78.7421 6.97339 79.2379 7.46896 79.2379 8.46011V9.04418C80.4895 7.66365 82.3313 6.97339 84.7635 6.97339H85.7553C88.1166 6.97339 89.864 7.53976 90.9975 8.6725C92.1309 9.80524 92.6977 11.5516 92.6977 13.9114V23.4335C92.6977 24.4247 92.2018 24.9203 91.21 24.9203C90.2182 24.9203 89.7223 24.4247 89.7223 23.4335V13.9114C89.7223 12.3657 89.439 11.3215 88.8723 10.7787C88.3173 10.2241 87.2783 9.94684 85.7553 9.94684H84.7635C83.3467 9.94684 82.1129 10.112 81.0621 10.4424C80.0113 10.761 79.4032 11.2684 79.2379 11.9645V23.4335C79.2379 24.4247 78.7421 24.9203 77.7503 24.9203Z" fill="#F3F3F3"/>
<path d="M58.8242 24.9204C57.3248 24.9204 56.1382 24.6136 55.2645 24C54.3908 23.3747 53.83 22.4425 53.582 21.2036C53.4994 20.708 53.5938 20.3186 53.8654 20.0354C54.1488 19.7523 54.5384 19.6107 55.0343 19.6107C55.5183 19.6107 55.8666 19.7346 56.0792 19.9823C56.3035 20.2183 56.4865 20.5782 56.6282 21.062C56.7699 21.416 57.006 21.652 57.3366 21.77C57.679 21.8879 58.1749 21.9469 58.8242 21.9469H64.6332C65.5541 21.9469 66.1739 21.7995 66.4927 21.5045C66.8115 21.1977 66.9709 20.5664 66.9709 19.6107C66.9709 18.6667 66.8115 18.0413 66.4927 17.7346C66.1739 17.4278 65.5541 17.2744 64.6332 17.2744H58.9305C57.2303 17.2744 55.9493 16.8437 55.0874 15.9823C54.2255 15.121 53.7945 13.8408 53.7945 12.1416C53.7945 10.4071 54.2137 9.1151 55.052 8.26554C55.9021 7.40419 57.1949 6.97351 58.9305 6.97351H64.4561C67.2306 6.97351 68.8718 8.14165 69.3795 10.4779C69.4739 10.9735 69.3795 11.357 69.0961 11.6284C68.8128 11.8998 68.4231 12.0355 67.9272 12.0355C67.4668 12.0355 67.1244 11.9175 66.9001 11.6815C66.6757 11.4337 66.4986 11.0915 66.3688 10.6549C66.2271 10.3717 66.0086 10.1829 65.7135 10.0886C65.4301 9.99416 65.011 9.94696 64.4561 9.94696H58.9305C58.0332 9.94696 57.4487 10.0827 57.1772 10.354C56.9056 10.6254 56.7699 11.2213 56.7699 12.1416C56.7699 12.9912 56.9115 13.5635 57.1949 13.8585C57.4901 14.1534 58.0686 14.3009 58.9305 14.3009H64.6332C66.4042 14.3009 67.7324 14.7434 68.6179 15.6284C69.5035 16.5133 69.9462 17.8408 69.9462 19.6107C69.9462 21.3924 69.5035 22.7257 68.6179 23.6107C67.7324 24.4838 66.4042 24.9204 64.6332 24.9204H58.8242Z" fill="#F3F3F3"/>
<path d="M34.5851 32C33.0384 32 31.8932 31.6283 31.1494 30.8849C30.4173 30.1416 30.0513 28.9852 30.0513 27.4159C30.0513 26.8023 30.3583 26.4956 30.9723 26.4956C31.598 26.4956 31.9109 26.8023 31.9109 27.4159C31.9109 28.4779 32.0998 29.1976 32.4776 29.5752C32.8554 29.9528 33.5579 30.1416 34.5851 30.1416H40.7128C41.7518 30.1416 42.4602 29.9528 42.8381 29.5752C43.2159 29.1976 43.4048 28.4779 43.4048 27.4159V22.5487C42.7318 23.4336 41.8876 24.0531 40.8722 24.4071C39.8568 24.761 38.6703 24.938 37.3125 24.938H36.3207C34.1483 24.938 32.5603 24.4366 31.5567 23.4336C30.5531 22.4307 30.0513 20.8554 30.0513 18.708V9.09735C30.0513 8.47199 30.3583 8.1593 30.9723 8.1593C31.598 8.1593 31.9109 8.47199 31.9109 9.09735V18.708C31.9109 20.3481 32.2297 21.4867 32.8672 22.1239C33.5166 22.7611 34.6678 23.0796 36.3207 23.0796H37.3125C39.3787 23.0796 40.9077 22.7198 41.8994 22C42.903 21.2684 43.4048 20.1711 43.4048 18.708V9.09735C43.4048 8.47199 43.7118 8.1593 44.3257 8.1593C44.9515 8.1593 45.2643 8.47199 45.2643 9.09735V27.4159C45.2643 28.9852 44.8924 30.1416 44.1486 30.8849C43.4166 31.6283 42.2713 32 40.7128 32H34.5851Z" fill="#F3F3F3"/>
<path d="M18.755 8.1593C20.6559 8.1593 22.0137 8.64308 22.8284 9.61063C23.6549 10.5782 24.0681 12.177 24.0681 14.4071V24.0177C24.0681 24.6313 23.7611 24.938 23.1472 24.938C22.5214 24.938 22.2085 24.6313 22.2085 24.0177V14.4071C22.2085 12.8496 21.9429 11.7286 21.4116 11.0443C20.8803 10.3599 19.9948 10.0177 18.755 10.0177H17.2851C15.7384 10.0177 14.6286 10.3599 13.9556 11.0443C13.2944 11.7286 12.9638 12.8496 12.9638 14.4071V24.0177C12.9638 24.6313 12.6569 24.938 12.0429 24.938C11.4171 24.938 11.1043 24.6313 11.1043 24.0177V14.4071C11.1043 12.8496 10.8386 11.7286 10.3073 11.0443C9.776 10.3599 8.8905 10.0177 7.65078 10.0177H6.18084C4.63416 10.0177 3.52432 10.3599 2.85133 11.0443C2.19016 11.7286 1.85957 12.8496 1.85957 14.4071V24.0177C1.85957 24.6313 1.55259 24.938 0.938638 24.938C0.312879 24.938 0 24.6313 0 24.0177V9.11505C0 8.50148 0.312879 8.1947 0.938638 8.1947C1.55259 8.1947 1.85957 8.50148 1.85957 9.11505V10.4956C2.37906 9.65782 2.99302 9.06195 3.70142 8.70797C4.42163 8.34219 5.33076 8.1593 6.42878 8.1593H7.65078C8.8905 8.1593 9.88226 8.37759 10.6261 8.81417C11.3817 9.23895 11.978 9.94101 12.4148 10.9204C12.9343 9.94101 13.5719 9.23895 14.3275 8.81417C15.0831 8.37759 16.069 8.1593 17.2851 8.1593H18.755Z" fill="#F3F3F3"/>
</svg>
