<svg width="186" height="32" viewBox="0 0 186 32" fill="none" xmlns="http://www.w3.org/2000/svg">
<path d="M172.198 24.644C172.198 24.8365 172.122 25.0212 171.986 25.1573C171.85 25.2934 171.665 25.3699 171.472 25.3699H167.114C166.921 25.3699 166.736 25.2934 166.6 25.1573C166.464 25.0212 166.387 24.8365 166.387 24.644C166.387 24.4514 166.464 24.2668 166.6 24.1307C166.736 23.9945 166.921 23.918 167.114 23.918H171.472C171.665 23.918 171.85 23.9945 171.986 24.1307C172.122 24.2668 172.198 24.4514 172.198 24.644ZM169.293 21.7402C169.293 21.5477 169.216 21.363 169.08 21.2269C168.944 21.0908 168.759 21.0143 168.567 21.0143H165.661C165.468 21.0143 165.284 21.0908 165.147 21.2269C165.011 21.363 164.935 21.5477 164.935 21.7402C164.935 21.9328 165.011 22.1174 165.147 22.2535C165.284 22.3897 165.468 22.4662 165.661 22.4662H168.567C168.759 22.4662 168.944 22.3897 169.08 22.2535C169.216 22.1174 169.293 21.9328 169.293 21.7402ZM186 23.1921V23.918C186 24.3031 185.847 24.6724 185.574 24.9447C185.302 25.217 184.932 25.3699 184.547 25.3699H176.131C175.748 25.3707 175.38 25.2196 175.109 24.9498L165.369 15.5171L165.36 15.5089C165.088 15.2367 164.935 14.8675 164.935 14.4826C164.935 14.0977 165.088 13.7286 165.36 13.4563L171.172 7.63794L171.185 7.62524C171.459 7.36187 171.825 7.21677 172.205 7.22136C172.585 7.22594 172.947 7.37984 173.215 7.64974L173.96 8.40108C174.215 8.6563 174.366 8.99724 174.383 9.35751C174.486 11.4337 175.927 12.8339 178.134 13.0117C178.496 13.0428 178.833 13.208 179.078 13.4748C179.324 13.7417 179.461 14.0909 179.462 14.4536V16.6586C179.462 17.4288 179.769 18.1674 180.313 18.7119C180.858 19.2565 181.597 19.5624 182.368 19.5624C183.331 19.5624 184.255 19.9448 184.936 20.6255C185.617 21.3062 186 22.2294 186 23.1921ZM184.547 23.1921C184.547 22.6145 184.318 22.0606 183.909 21.6522C183.5 21.2437 182.946 21.0143 182.368 21.0143C181.512 21.0153 180.675 20.7627 179.963 20.2883H177.283C177.091 20.2883 176.906 20.2119 176.77 20.0757C176.633 19.9396 176.557 19.7549 176.557 19.5624C176.557 19.3699 176.633 19.1852 176.77 19.0491C176.906 18.9129 177.091 18.8365 177.283 18.8365H178.596C178.336 18.3879 178.158 17.8961 178.071 17.3846H176.557C176.364 17.3846 176.179 17.3081 176.043 17.172C175.907 17.0358 175.83 16.8512 175.83 16.6586C175.83 16.4661 175.907 16.2815 176.043 16.1453C176.179 16.0092 176.364 15.9327 176.557 15.9327H178.01V14.4536C176.609 14.3393 175.387 13.8184 174.479 12.9473C173.536 12.0399 173.001 10.823 172.936 9.42375L172.187 8.67331L166.387 14.4808L176.123 23.909L176.131 23.9162H184.547V23.1921Z" fill="#53377A"/>
<path d="M146.688 24.9203C145.697 24.9203 145.201 24.4247 145.201 23.4336V1.48672C145.201 0.495575 145.697 0 146.688 0C147.68 0 148.176 0.495575 148.176 1.48672V14.7787L156.606 7.53981C157.362 6.89085 158.058 6.93804 158.696 7.68141C159.345 8.43657 159.298 9.13273 158.554 9.7699L152.09 15.3451L158.271 22.3717C158.932 23.1386 158.897 23.8348 158.165 24.4601C157.409 25.1091 156.701 25.0619 156.039 24.3186L149.823 17.3097L148.176 18.7256V23.4336C148.176 24.4247 147.68 24.9203 146.688 24.9203Z" fill="#53377A"/>
<path d="M127.689 24.9203C125.706 24.9203 124.23 24.4366 123.262 23.469C122.294 22.5015 121.81 21.0265 121.81 19.0442C121.81 17.0619 122.288 15.587 123.244 14.6195C124.212 13.6519 125.694 13.1681 127.689 13.1681H135.181C135.11 11.9292 134.785 11.0855 134.207 10.6372C133.628 10.177 132.636 9.9469 131.231 9.9469H129.177C127.996 9.9469 127.117 10.0295 126.538 10.1947C125.96 10.3481 125.552 10.6313 125.316 11.0442C125.104 11.5398 124.885 11.882 124.661 12.0708C124.437 12.2596 124.1 12.354 123.651 12.354C123.156 12.354 122.766 12.2183 122.483 11.9469C122.199 11.6637 122.117 11.292 122.235 10.8319C122.589 9.49852 123.327 8.52507 124.448 7.9115C125.582 7.28613 127.158 6.97345 129.177 6.97345H131.231C133.593 6.97345 135.34 7.53982 136.474 8.67256C137.607 9.80531 138.174 11.5516 138.174 13.9115V23.4336C138.174 24.4248 137.678 24.9203 136.686 24.9203C135.694 24.9203 135.198 24.4248 135.198 23.4336V22.6371C133.935 24.1593 132.093 24.9203 129.673 24.9203H127.689ZM127.689 21.9469H129.673C130.547 21.9469 131.367 21.8702 132.135 21.7168C132.902 21.5516 133.557 21.2566 134.1 20.8318C134.655 20.4071 135.021 19.7994 135.198 19.0088V16.1416H127.689C126.52 16.1416 125.741 16.3363 125.352 16.7256C124.974 17.115 124.785 17.8879 124.785 19.0442C124.785 20.2124 124.974 20.9911 125.352 21.3805C125.741 21.7581 126.52 21.9469 127.689 21.9469Z" fill="#53377A"/>
<path d="M101.84 17.1681V18.0177C101.84 19.5398 102.117 20.5781 102.672 21.1327C103.227 21.6755 104.272 21.9469 105.807 21.9469H108.712C109.916 21.9469 110.807 21.8348 111.386 21.6106C111.964 21.3864 112.348 20.9911 112.537 20.4248C112.667 19.9764 112.844 19.6342 113.068 19.3982C113.304 19.1622 113.659 19.0442 114.131 19.0442C114.627 19.0442 115.005 19.174 115.264 19.4336C115.524 19.6932 115.607 20.0708 115.512 20.5663C115.252 22.0295 114.556 23.1209 113.422 23.8407C112.289 24.5604 110.719 24.9203 108.712 24.9203H105.807C103.458 24.9203 101.71 24.3539 100.565 23.2212C99.4314 22.0885 98.8647 20.354 98.8647 18.0177V13.9115C98.8647 11.5162 99.4314 9.7581 100.565 8.63715C101.71 7.50441 103.458 6.94984 105.807 6.97344H108.712C111.073 6.97344 112.82 7.53981 113.954 8.67255C115.087 9.7935 115.654 11.5398 115.654 13.9115V15.6814C115.654 16.6725 115.158 17.1681 114.166 17.1681H101.84ZM105.807 9.94689C104.272 9.92329 103.227 10.1888 102.672 10.7433C102.117 11.2979 101.84 12.354 101.84 13.9115V14.1947H112.679V13.9115C112.679 12.3658 112.401 11.3215 111.846 10.7787C111.303 10.2242 110.258 9.94689 108.712 9.94689H105.807Z" fill="#53377A"/>
<path d="M77.7503 24.9203C76.7585 24.9203 76.2626 24.4248 76.2626 23.4336V8.46017C76.2626 7.46902 76.7585 6.97345 77.7503 6.97345C78.7421 6.97345 79.2379 7.46902 79.2379 8.46017V9.04424C80.4895 7.66371 82.3313 6.97345 84.7635 6.97345H85.7553C88.1166 6.97345 89.864 7.53982 90.9975 8.67256C92.1309 9.80531 92.6977 11.5516 92.6977 13.9115V23.4336C92.6977 24.4248 92.2018 24.9203 91.21 24.9203C90.2182 24.9203 89.7223 24.4248 89.7223 23.4336V13.9115C89.7223 12.3658 89.439 11.3215 88.8723 10.7788C88.3173 10.2242 87.2783 9.9469 85.7553 9.9469H84.7635C83.3467 9.9469 82.1129 10.1121 81.0621 10.4425C80.0113 10.7611 79.4032 11.2684 79.2379 11.9646V23.4336C79.2379 24.4248 78.7421 24.9203 77.7503 24.9203Z" fill="#53377A"/>
<path d="M58.8242 24.9203C57.3248 24.9203 56.1382 24.6135 55.2645 24C54.3908 23.3746 53.83 22.4425 53.582 21.2035C53.4994 20.7079 53.5938 20.3186 53.8654 20.0354C54.1488 19.7522 54.5384 19.6106 55.0343 19.6106C55.5183 19.6106 55.8666 19.7345 56.0792 19.9823C56.3035 20.2183 56.4865 20.5782 56.6282 21.0619C56.7699 21.4159 57.006 21.6519 57.3366 21.7699C57.679 21.8879 58.1749 21.9469 58.8242 21.9469H64.6332C65.5541 21.9469 66.1739 21.7994 66.4927 21.5044C66.8115 21.1976 66.9709 20.5664 66.9709 19.6106C66.9709 18.6667 66.8115 18.0413 66.4927 17.7345C66.1739 17.4277 65.5541 17.2743 64.6332 17.2743H58.9305C57.2303 17.2743 55.9493 16.8436 55.0874 15.9823C54.2255 15.1209 53.7945 13.8407 53.7945 12.1416C53.7945 10.4071 54.2137 9.11504 55.052 8.26548C55.9021 7.40413 57.1949 6.97345 58.9305 6.97345H64.4561C67.2306 6.97345 68.8718 8.14159 69.3795 10.4779C69.4739 10.9734 69.3795 11.3569 69.0961 11.6283C68.8128 11.8997 68.4231 12.0354 67.9272 12.0354C67.4668 12.0354 67.1244 11.9174 66.9001 11.6814C66.6757 11.4336 66.4986 11.0914 66.3688 10.6549C66.2271 10.3717 66.0086 10.1829 65.7135 10.0885C65.4301 9.9941 65.011 9.9469 64.4561 9.9469H58.9305C58.0332 9.9469 57.4487 10.0826 57.1772 10.354C56.9056 10.6254 56.7699 11.2212 56.7699 12.1416C56.7699 12.9911 56.9115 13.5634 57.1949 13.8584C57.4901 14.1534 58.0686 14.3009 58.9305 14.3009H64.6332C66.4042 14.3009 67.7324 14.7434 68.6179 15.6283C69.5035 16.5133 69.9462 17.8407 69.9462 19.6106C69.9462 21.3923 69.5035 22.7256 68.6179 23.6106C67.7324 24.4838 66.4042 24.9203 64.6332 24.9203H58.8242Z" fill="#53377A"/>
<path d="M34.5851 32C33.0384 32 31.8932 31.6283 31.1494 30.885C30.4173 30.1416 30.0513 28.9853 30.0513 27.4159C30.0513 26.8024 30.3583 26.4956 30.9723 26.4956C31.598 26.4956 31.9109 26.8024 31.9109 27.4159C31.9109 28.4779 32.0998 29.1977 32.4776 29.5752C32.8554 29.9528 33.5579 30.1416 34.5851 30.1416H40.7128C41.7518 30.1416 42.4602 29.9528 42.8381 29.5752C43.2159 29.1977 43.4048 28.4779 43.4048 27.4159V22.5487C42.7318 23.4336 41.8876 24.0531 40.8722 24.4071C39.8568 24.7611 38.6703 24.9381 37.3125 24.9381H36.3207C34.1483 24.9381 32.5603 24.4366 31.5567 23.4336C30.5531 22.4307 30.0513 20.8555 30.0513 18.708V9.09738C30.0513 8.47202 30.3583 8.15933 30.9723 8.15933C31.598 8.15933 31.9109 8.47202 31.9109 9.09738V18.708C31.9109 20.3481 32.2297 21.4867 32.8672 22.1239C33.5166 22.7611 34.6678 23.0797 36.3207 23.0797H37.3125C39.3787 23.0797 40.9077 22.7198 41.8994 22C42.903 21.2685 43.4048 20.1711 43.4048 18.708V9.09738C43.4048 8.47202 43.7118 8.15933 44.3257 8.15933C44.9515 8.15933 45.2643 8.47202 45.2643 9.09738V27.4159C45.2643 28.9853 44.8924 30.1416 44.1486 30.885C43.4166 31.6283 42.2713 32 40.7128 32H34.5851Z" fill="#333333"/>
<path d="M18.755 8.15933C20.6559 8.15933 22.0137 8.64311 22.8284 9.61066C23.6549 10.5782 24.0681 12.177 24.0681 14.4071V24.0177C24.0681 24.6313 23.7611 24.9381 23.1472 24.9381C22.5214 24.9381 22.2085 24.6313 22.2085 24.0177V14.4071C22.2085 12.8496 21.9429 11.7286 21.4116 11.0443C20.8803 10.3599 19.9948 10.0177 18.755 10.0177H17.2851C15.7384 10.0177 14.6286 10.3599 13.9556 11.0443C13.2944 11.7286 12.9638 12.8496 12.9638 14.4071V24.0177C12.9638 24.6313 12.6569 24.9381 12.0429 24.9381C11.4171 24.9381 11.1043 24.6313 11.1043 24.0177V14.4071C11.1043 12.8496 10.8386 11.7286 10.3073 11.0443C9.776 10.3599 8.8905 10.0177 7.65078 10.0177H6.18084C4.63416 10.0177 3.52432 10.3599 2.85133 11.0443C2.19016 11.7286 1.85957 12.8496 1.85957 14.4071V24.0177C1.85957 24.6313 1.55259 24.9381 0.938638 24.9381C0.312879 24.9381 0 24.6313 0 24.0177V9.11508C0 8.50151 0.312879 8.19473 0.938638 8.19473C1.55259 8.19473 1.85957 8.50151 1.85957 9.11508V10.4956C2.37906 9.65786 2.99302 9.06198 3.70142 8.708C4.42163 8.34222 5.33076 8.15933 6.42878 8.15933H7.65078C8.8905 8.15933 9.88226 8.37762 10.6261 8.8142C11.3817 9.23898 11.978 9.94104 12.4148 10.9204C12.9343 9.94104 13.5719 9.23898 14.3275 8.8142C15.0831 8.37762 16.069 8.15933 17.2851 8.15933H18.755Z" fill="#333333"/>
</svg>
