<svg width="24" height="25" viewBox="0 0 24 25" fill="none" xmlns="http://www.w3.org/2000/svg">
<g clip-path="url(#clip0_16_13)">
<path d="M21.1875 0.5H2.8125C1.2616 0.5 0 1.7616 0 3.3125V21.6875C0 23.2384 1.2616 24.5 2.8125 24.5H21.1875C22.7384 24.5 24 23.2384 24 21.6875V3.3125C24 1.7616 22.7384 0.5 21.1875 0.5ZM22.125 21.6875C22.125 22.2044 21.7044 22.625 21.1875 22.625H15.6562V15.7812H18.6575L19.0073 12.875H15.6562V9.73438C15.6562 8.93274 16.2609 8.32812 17.0625 8.32812H19.1719V5.60938C18.6167 5.53101 17.5457 5.42188 17.0625 5.42188C15.9692 5.42188 14.8733 5.88312 14.0559 6.68713C13.2138 7.5155 12.75 8.60059 12.75 9.74261V12.875H9.70312V15.7812H12.75V22.625H2.8125C2.29559 22.625 1.875 22.2044 1.875 21.6875V3.3125C1.875 2.79559 2.29559 2.375 2.8125 2.375H21.1875C21.7044 2.375 22.125 2.79559 22.125 3.3125V21.6875Z" fill="#F3F3F3"/>
</g>
<defs>
<clipPath id="clip0_16_13">
<rect width="24" height="24" fill="white" transform="translate(0 0.5)"/>
</clipPath>
</defs>
</svg>
