<svg width="24" height="25" viewBox="0 0 24 25" fill="none" xmlns="http://www.w3.org/2000/svg">
<g clip-path="url(#clip0_16_3)">
<path d="M17.0284 0.5H6.97162C3.12745 0.5 0 3.62745 0 7.47162V17.5284C0 21.3725 3.12745 24.5 6.97162 24.5H17.0284C20.8725 24.5 24 21.3725 24 17.5284V7.47162C24 3.62745 20.8725 0.5 17.0284 0.5ZM22.125 17.5284C22.125 20.3387 19.8387 22.625 17.0284 22.625H6.97162C4.16133 22.625 1.875 20.3387 1.875 17.5284V7.47162C1.875 4.66133 4.16133 2.375 6.97162 2.375H17.0284C19.8387 2.375 22.125 4.66133 22.125 7.47162V17.5284Z" fill="#F3F3F3"/>
<path d="M12 6.03125C8.43309 6.03125 5.53125 8.93309 5.53125 12.5C5.53125 16.0669 8.43309 18.9688 12 18.9688C15.5669 18.9688 18.4688 16.0669 18.4688 12.5C18.4688 8.93309 15.5669 6.03125 12 6.03125ZM12 17.0938C9.46702 17.0938 7.40625 15.033 7.40625 12.5C7.40625 9.96702 9.46702 7.90625 12 7.90625C14.533 7.90625 16.5938 9.96702 16.5938 12.5C16.5938 15.033 14.533 17.0938 12 17.0938Z" fill="#F3F3F3"/>
<path d="M18.5625 6.875C19.0803 6.875 19.5 6.45527 19.5 5.9375C19.5 5.41973 19.0803 5 18.5625 5C18.0447 5 17.625 5.41973 17.625 5.9375C17.625 6.45527 18.0447 6.875 18.5625 6.875Z" fill="#F3F3F3"/>
</g>
<defs>
<clipPath id="clip0_16_3">
<rect width="24" height="24" fill="white" transform="translate(0 0.5)"/>
</clipPath>
</defs>
</svg>
