<svg width="24" height="25" viewBox="0 0 24 25" fill="none" xmlns="http://www.w3.org/2000/svg">
<path d="M21.1525 5.88983L21.1406 5.84375C22.1575 5.23414 22.9785 4.22919 23.3438 3.07812C22.3913 3.6447 21.2769 4.07455 20.1562 4.29688C19.2576 3.33941 18.0585 2.75 16.6406 2.75C13.923 2.75 11.6719 4.95017 11.6719 7.67188C11.6719 8.05916 11.7266 8.43828 11.8125 8.79688V8.84375C7.76217 8.61237 4.09491 6.5525 1.6875 3.59375C1.26502 4.32172 1.03125 5.36197 1.03125 6.26562C1.03125 7.67188 1.86628 9.55536 3.1875 10.4375V10.5312C2.39859 10.4994 1.59056 9.95595 0.9375 9.59375C0.9375 9.61527 0.966094 9.64114 0.966094 9.66266C0.966094 12.0509 2.71659 14.1107 4.96875 14.5625C4.57627 14.6663 4.02347 14.75 3.60938 14.75C3.29072 14.75 2.97263 14.6667 2.67188 14.6094C3.29845 16.5673 5.10938 17.8438 7.26562 17.8438V17.8906C5.58727 19.1918 3.45994 20.0938 1.17188 20.0938C0.774422 20.0938 0.28125 20.0469 0 20C2.17692 21.3985 4.76484 22.25 7.54688 22.25C16.6019 22.25 21.5625 14.7969 21.5625 8.28125V7.625C22.5256 6.92933 23.3412 5.98972 24 5C24 5 22.2719 5.81886 21.1525 5.88983ZM19.6875 8.28125C19.6875 9.68806 19.412 11.1654 18.8906 12.5534C18.3428 14.0122 17.5542 15.3285 16.5468 16.4657C14.967 18.2491 12.1232 20.375 7.54688 20.375C7.41239 20.375 7.27814 20.3727 7.14389 20.368C7.58573 20.1117 8.01038 19.8264 8.41444 19.5131L9.14062 18.9501V18.0312V17.8438V15.9688L8.36817 15.9602C7.52353 15.9508 6.84375 15.2635 6.84375 14.4188V12.8857L5.8298 12.6567C5.38111 12.5554 5.0625 12.1568 5.0625 11.6968V10.5312V10.3906L5.03906 9.43489L4.2052 8.87816C3.84511 8.5752 3.51877 8.1425 3.28627 7.67422C5.74669 9.4685 8.66878 10.5422 11.7056 10.7157L13.6875 10.8289V8.84375V8.79688V8.57539L13.6359 8.36C13.5768 8.11348 13.5469 7.88197 13.5469 7.67188C13.5469 6.8645 13.869 6.10213 14.4539 5.52514C15.0423 4.94469 15.819 4.625 16.6406 4.625C17.4714 4.625 18.1943 4.94633 18.7891 5.58008L19.2675 6.08975L19.3254 6.31334L19.3373 6.35942L19.6875 7.71317V8.28125Z" fill="#F3F3F3"/>
</svg>
